<svg id="Capa_1" enable-background="new 0 0 512 512" height="512" viewBox="0 0 512 512" width="512" xmlns="http://www.w3.org/2000/svg"><g><path d="m340.399 393.019 108.083 108.083c14.531 14.531 38.09 14.531 52.62 0 14.531-14.531 14.531-38.09 0-52.62l-108.085-108.085z" fill="#09607d"/><path d="m222.008 0-20.016 221.753 20.016 222.264c122.416 0 222.008-99.592 222.008-222.008s-99.592-222.009-222.008-222.009z" fill="#04303e"/><path d="m0 222.008c0 122.416 99.592 222.008 222.008 222.008v-444.016c-122.416 0-222.008 99.592-222.008 222.008z" fill="#09607d"/><path d="m395.282 222.008c0-95.543-77.73-173.273-173.274-173.273l-20.016 173.018 20.016 173.53c95.544-.001 173.274-77.731 173.274-173.275z" fill="#cde1e6"/><path d="m222.008 48.734c-95.543 0-173.273 77.73-173.273 173.273 0 95.544 77.73 173.274 173.273 173.274z" fill="#ebebf0"/><path d="m365.282 222.008c0-79.001-64.272-143.273-143.274-143.273l-20.016 143.018 20.016 143.53c79.002-.001 143.274-64.273 143.274-143.275z" fill="#ebebf0"/><path d="m222.008 78.734c-79.001 0-143.273 64.272-143.273 143.273 0 79.002 64.272 143.274 143.273 143.274z" fill="#fff5f5"/><path d="m208.251 233.682 13.757 101.576s73.53-50.704 73.53-113.25c0-13.719-3.539-26.868-9.062-39.037z" fill="#009986"/><path d="m157.54 182.971c-5.523 12.169-9.062 25.318-9.062 39.037 0 62.546 73.53 113.25 73.53 113.25v-101.576z" fill="#00cc76"/><path d="m286.477 182.971c-19.658-43.312-64.468-74.213-64.468-74.213l-13.757 66.514 13.757 72.167z" fill="#00cc76"/><path d="m222.008 108.758s-44.81 30.901-64.468 74.213l64.468 64.468z" fill="#a5e887"/></g></svg>